HIERARCHY
ROOT joint_Root
{
	OFFSET 0.0 0.0 0.0
	CHANNELS 6 Xposition Yposition Zposition Zrotation Xrotation Yrotation 
	JOINT Hips
	{
		OFFSET 4.5925 91.4895 -427.239
		CHANNELS 6 Xposition Yposition Zposition Zrotation Xrotation Yrotation 
		JOINT Spine
		{
			OFFSET 15.7357 0.0 0.0
			CHANNELS 6 Xposition Yposition Zposition Zrotation Xrotation Yrotation 
			JOINT Chest
			{
				OFFSET 8.98455 -0.406207 0.0
				CHANNELS 6 Xposition Yposition Zposition Zrotation Xrotation Yrotation 
				JOINT Neck
				{
					OFFSET 16.3773 0.0 0.0
					CHANNELS 6 Xposition Yposition Zposition Zrotation Xrotation Yrotation 
					JOINT Head
					{
						OFFSET 6.45672 0.0 0.0
						CHANNELS 6 Xposition Yposition Zposition Zrotation Xrotation Yrotation 
						End Site
						{
							OFFSET 0.0 0.0 0.0
						}
					}
				}
				JOINT Shoulder_L
				{
					OFFSET 12.9942 -0.242716 4.98039
					CHANNELS 6 Xposition Yposition Zposition Zrotation Xrotation Yrotation 
					JOINT UpperArm_L
					{
						OFFSET 5.34809 0.0 0.0
						CHANNELS 6 Xposition Yposition Zposition Zrotation Xrotation Yrotation 
						JOINT LowerArm_L
						{
							OFFSET 24.3286 1.87007e-05 0.0
							CHANNELS 6 Xposition Yposition Zposition Zrotation Xrotation Yrotation 
							JOINT Hand_L
							{
								OFFSET 22.2916 0.0 0.0
								CHANNELS 6 Xposition Yposition Zposition Zrotation Xrotation Yrotation 
								End Site
								{
									OFFSET 0.0 0.0 0.0
								}
							}
						}
					}
				}
				JOINT Shoulder_R
				{
					OFFSET 12.9945 -0.242716 -4.98039
					CHANNELS 6 Xposition Yposition Zposition Zrotation Xrotation Yrotation 
					JOINT UpperArm_R
					{
						OFFSET -5.34813 0.0 0.0
						CHANNELS 6 Xposition Yposition Zposition Zrotation Xrotation Yrotation 
						JOINT LowerArm_R
						{
							OFFSET -24.3289 0.000322201 0.0
							CHANNELS 6 Xposition Yposition Zposition Zrotation Xrotation Yrotation 
							JOINT Hand_R
							{
								OFFSET -22.2915 -0.000108084 0.0
								CHANNELS 6 Xposition Yposition Zposition Zrotation Xrotation Yrotation 
								End Site
								{
									OFFSET 0.0 0.0 0.0
								}
							}
						}
					}
				}
			}
		}
		JOINT UpperLeg_L
		{
			OFFSET -2.19248 -6.46944 0.0
			CHANNELS 6 Xposition Yposition Zposition Zrotation Xrotation Yrotation 
			JOINT LowerLeg_L
			{
				OFFSET 39.0811 0.0 -1.23785e-05
				CHANNELS 6 Xposition Yposition Zposition Zrotation Xrotation Yrotation 
				JOINT Foot_L
				{
					OFFSET 40.9854 0.0 -1.26872e-05
					CHANNELS 6 Xposition Yposition Zposition Zrotation Xrotation Yrotation 
					JOINT Toes_L
					{
						OFFSET 11.7543 0.0 0.0
						CHANNELS 6 Xposition Yposition Zposition Zrotation Xrotation Yrotation 
						End Site
						{
							OFFSET 0.0 0.0 0.0
						}
					}
				}
			}
		}
		JOINT UpperLeg_R
		{
			OFFSET -2.19251 6.46944 0.0
			CHANNELS 6 Xposition Yposition Zposition Zrotation Xrotation Yrotation 
			JOINT LowerLeg_R
			{
				OFFSET -39.0811 -0.00228153 -0.0401928
				CHANNELS 6 Xposition Yposition Zposition Zrotation Xrotation Yrotation 
				JOINT Foot_R
				{
					OFFSET -40.9854 0.0 0.0
					CHANNELS 6 Xposition Yposition Zposition Zrotation Xrotation Yrotation 
					JOINT Toes_R
					{
						OFFSET -11.7543 0.0 0.0
						CHANNELS 6 Xposition Yposition Zposition Zrotation Xrotation Yrotation 
						End Site
						{
							OFFSET 0.0 0.0 0.0
						}
					}
				}
			}
		}
	}
}
MOTION
Frames:	5
Frame Time:	0.0333333
0.000000 0.000000 0.000000 0.000000 0.000000 -0.000000 7.895910 91.049100 54.153700 -87.763500 -3.751860 175.291000 15.735700 0.000005 -0.000001 35.809800 81.850200 -33.994800 8.984550 -0.406207 -0.000000 2.039470 -13.300900 3.877040 16.377300 -0.000001 -0.000001 -8.954290 -2.369130 0.709845 6.456720 -0.000001 -0.000000 -15.293200 1.242640 8.758620 12.994200 -0.242716 4.980390 -88.557200 -7.995860 -79.736900 5.348090 -0.000007 -0.000001 -53.271400 51.979800 -31.322900 24.328600 0.000019 0.000005 32.933800 -13.343900 -109.611000 22.291600 -0.000001 0.000005 2.833560 5.439340 -4.256840 12.994500 -0.242716 -4.980390 88.688100 4.406440 -73.403400 -5.348130 -0.000001 -0.000004 -66.833000 42.582000 13.825700 -24.328900 0.000322 -0.000009 -6.266450 2.991190 -115.418000 -22.291500 -0.000108 -0.000004 9.984500 5.503080 -6.658250 -2.192480 -6.469440 -0.000000 -173.556000 -13.992700 6.779510 39.081100 -0.000007 -0.000012 0.069833 -0.110612 32.265000 40.985400 -0.000006 -0.000013 2.497840 15.802400 -45.109800 11.754300 -0.000000 0.000003 -0.113367 -0.476589 -36.538600 -2.192510 6.469440 -0.000001 -173.029000 13.213500 152.550000 -39.081100 -0.002282 -0.040193 0.058847 -0.105585 27.745500 -40.985400 0.000008 0.000006 3.608750 7.015440 -65.231600 -11.754300 -0.000006 -0.000006 -0.018760 -0.160319 -23.120900
0.000000 0.000000 0.000000 0.000000 0.000000 -0.000000 8.001910 89.282400 47.820000 -87.797400 -3.494660 176.829000 15.735700 0.000005 -0.000001 38.135500 81.558500 -36.349300 8.984550 -0.406207 -0.000000 2.942290 -13.342400 3.925270 16.377300 -0.000001 -0.000001 -8.024540 -2.228140 0.228633 6.456720 -0.000001 -0.000000 -14.812300 1.163300 8.623470 12.994200 -0.242716 4.980390 -88.335900 -8.917830 -79.385600 5.348090 -0.000007 -0.000001 -47.452200 54.492300 -37.026400 24.328600 0.000019 0.000005 30.015500 -12.553600 -110.618000 22.291600 -0.000001 0.000005 1.479360 5.440520 -4.303390 12.994500 -0.242716 -4.980390 88.748600 4.191610 -73.361300 -5.348130 -0.000001 -0.000004 -63.966200 42.280400 10.105500 -24.328900 0.000322 -0.000009 -5.025950 2.434830 -115.784000 -22.291500 -0.000108 -0.000004 9.906740 5.499450 -6.511260 -2.192480 -6.469440 -0.000000 -173.714000 -9.612450 7.806090 39.081100 -0.000007 -0.000012 0.067963 -0.085552 38.463000 40.985400 -0.000006 -0.000013 0.410406 12.830100 -42.631000 11.754300 -0.000000 0.000003 -0.045446 -0.281143 -28.142600 -2.192510 6.469440 -0.000001 -172.625000 13.636400 151.036000 -39.081100 -0.002282 -0.040193 0.001932 0.001867 36.004400 -40.985400 0.000008 0.000006 8.033720 3.698790 -61.969500 -11.754300 -0.000006 -0.000006 -0.009090 -0.096706 -20.512200
0.000000 0.000000 0.000000 0.000000 0.000000 -0.000000 8.084590 86.550500 41.272600 -88.021000 -3.478480 178.495000 15.735700 0.000005 -0.000001 40.655200 81.640800 -39.122000 8.984550 -0.406207 -0.000000 3.370830 -12.728200 3.448870 16.377300 -0.000001 -0.000001 -6.560170 -2.177260 0.162762 6.456720 -0.000001 -0.000000 -13.319400 0.737977 8.040490 12.994200 -0.242716 4.980390 -88.318800 -8.068680 -78.188800 5.348090 -0.000007 -0.000001 -45.563500 54.998600 -37.951500 24.328600 0.000019 0.000005 28.328100 -11.797200 -110.769000 22.291600 -0.000001 0.000005 -0.288214 5.444530 -4.446950 12.994500 -0.242716 -4.980390 88.308400 5.555030 -73.037900 -5.348130 -0.000001 -0.000004 -60.361600 41.569400 7.219270 -24.328900 0.000322 -0.000009 -4.384950 2.177350 -116.356000 -22.291500 -0.000108 -0.000004 9.919640 5.504670 -6.721150 -2.192480 -6.469440 -0.000000 -174.060000 -6.502990 7.508680 39.081100 -0.000007 -0.000012 0.070146 -0.064240 47.514700 40.985400 -0.000006 -0.000013 -2.686470 8.036440 -41.481900 11.754300 -0.000000 0.000003 -0.006737 -0.077401 -19.727500 -2.192510 6.469440 -0.000001 -174.113000 11.051300 151.274000 -39.081100 -0.002282 -0.040193 -0.137481 0.123080 48.828100 -40.985400 0.000008 0.000006 8.493170 -0.171511 -72.917800 -11.754300 -0.000006 -0.000006 -0.000129 -0.002147 -16.661000
0.000000 0.000000 0.000000 0.000000 0.000000 -0.000000 8.284670 84.187500 35.157900 -86.426600 -3.581080 -179.876000 15.735700 0.000005 -0.000001 47.747200 81.802500 -45.573800 8.984550 -0.406207 -0.000000 4.653990 -11.064100 4.803430 16.377300 -0.000001 -0.000001 -6.473240 -2.363080 -0.160973 6.456720 -0.000001 -0.000000 -12.278900 0.604563 7.218860 12.994200 -0.242716 4.980390 -89.126000 -4.002250 -77.662400 5.348090 -0.000007 -0.000001 -51.049400 52.539200 -30.603900 24.328600 0.000019 0.000005 30.385900 -11.552000 -108.858000 22.291600 -0.000001 0.000005 -2.163290 5.452350 -4.723390 12.994500 -0.242716 -4.980390 87.162200 9.193870 -72.761900 -5.348130 -0.000001 -0.000004 -53.511700 39.521500 3.066140 -24.328900 0.000322 -0.000009 -5.674840 2.775200 -115.981000 -22.291500 -0.000108 -0.000004 11.158600 5.530110 -7.790700 -2.192480 -6.469440 -0.000000 -172.432000 -5.209150 4.694720 39.081100 -0.000007 -0.000012 0.062459 -0.036725 59.542000 40.985400 -0.000006 -0.000013 -0.123753 0.239733 -46.260000 11.754300 -0.000000 0.000003 -0.006067 -0.071451 -19.484800 -2.192510 6.469440 -0.000001 -172.902000 10.309500 154.254000 -39.081100 -0.002282 -0.040193 -0.002884 0.004169 55.681500 -40.985400 0.000008 0.000006 9.062780 -2.728510 -80.995900 -11.754300 -0.000006 -0.000006 -0.911634 -1.148160 -15.860600
0.000000 0.000000 0.000000 0.000000 0.000000 -0.000000 8.382520 82.918100 29.798600 -84.966100 -3.875450 -179.291000 15.735700 0.000005 -0.000001 54.158200 81.954100 -51.190700 8.984550 -0.406207 -0.000000 5.591280 -9.457300 6.401820 16.377300 -0.000001 -0.000001 -6.867220 -2.628400 0.499642 6.456720 -0.000001 -0.000000 -12.075400 1.518680 4.698020 12.994200 -0.242716 4.980390 -90.294000 1.276310 -77.046400 5.348090 -0.000007 -0.000001 -62.516400 45.612200 -15.997900 24.328600 0.000019 0.000005 37.882800 -11.961700 -104.925000 22.291600 -0.000001 0.000005 -0.506659 5.445030 -4.458210 12.994500 -0.242716 -4.980390 86.659700 10.909600 -72.861100 -5.348130 -0.000001 -0.000004 -50.223500 38.002900 -2.846070 -24.328900 0.000322 -0.000009 -4.700440 1.861810 -111.525000 -22.291500 -0.000108 -0.000004 12.965200 5.532990 -7.935060 -2.192480 -6.469440 -0.000000 -171.637000 -4.323370 -1.605120 39.081100 -0.000007 -0.000012 0.008137 -0.002796 71.000900 40.985400 -0.000006 -0.000013 5.386070 -5.788570 -49.220300 11.754300 -0.000000 0.000003 -0.005692 -0.068025 -19.345100 -2.192510 6.469440 -0.000001 -172.026000 12.428000 158.133000 -39.081100 -0.002282 -0.040193 0.095185 -0.058082 57.727100 -40.985400 0.000008 0.000006 9.782870 -2.209140 -86.074600 -11.754300 -0.000006 -0.000006 -1.420630 -1.825380 -15.972800
